<svg xmlns="http://www.w3.org/2000/svg" width="900" height="440" viewBox="0 0 900 440">
<rect width="100%" height="100%" fill="white"/>
<style>
text { font-family: -apple-system, BlinkMacSystemFont, "Helvetica Neue", Arial, sans-serif; fill: #1f2933; }
.title { font-size: 20px; font-weight: 700; }
.axis { font-size: 12px; fill: #4b5563; }
.label { font-size: 11px; fill: #374151; }
.value { font-size: 12px; font-weight: 650; }
.grid { stroke: #d9dee5; stroke-width: 1; }
</style>
<text x="72" y="32" class="title">Prior AR vs DDM LoRA gain audit</text>
<line x1="72" y1="270.3" x2="866" y2="270.3" stroke="#111827" stroke-width="1"/>
<line x1="72" y1="306.4" x2="866" y2="306.4" class="grid"/>
<text x="60" y="310.4" text-anchor="end" class="axis">-0.05</text>
<line x1="72" y1="270.3" x2="866" y2="270.3" class="grid"/>
<text x="60" y="274.3" text-anchor="end" class="axis">0.00</text>
<line x1="72" y1="198.2" x2="866" y2="198.2" class="grid"/>
<text x="60" y="202.2" text-anchor="end" class="axis">0.10</text>
<line x1="72" y1="126.1" x2="866" y2="126.1" class="grid"/>
<text x="60" y="130.1" text-anchor="end" class="axis">0.20</text>
<line x1="72" y1="54.0" x2="866" y2="54.0" class="grid"/>
<text x="60" y="58.0" text-anchor="end" class="axis">0.30</text>
<text transform="translate(138.2,408) rotate(-22)" text-anchor="end" class="label">C-Eval CN</text>
<rect x="88.5" y="255.9" width="26.5" height="14.4" fill="#457B9D"/>
<rect x="121.6" y="270.3" width="26.5" height="7.2" fill="#5B6770"/>
<rect x="154.7" y="270.3" width="26.5" height="28.8" fill="#00A6A6"/>
<text transform="translate(270.5,408) rotate(-22)" text-anchor="end" class="label">CommonsenseQA</text>
<rect x="220.9" y="241.5" width="26.5" height="28.8" fill="#457B9D"/>
<rect x="254.0" y="270.3" width="26.5" height="0.0" fill="#5B6770"/>
<rect x="287.0" y="270.3" width="26.5" height="50.5" fill="#00A6A6"/>
<text transform="translate(402.8,408) rotate(-22)" text-anchor="end" class="label">MMLU-Pro</text>
<rect x="353.2" y="255.9" width="26.5" height="14.4" fill="#457B9D"/>
<rect x="386.3" y="270.3" width="26.5" height="0.0" fill="#5B6770"/>
<rect x="419.4" y="205.4" width="26.5" height="64.9" fill="#00A6A6"/>
<text transform="translate(535.2,408) rotate(-22)" text-anchor="end" class="label">PubMedQA</text>
<rect x="485.5" y="82.8" width="26.5" height="187.5" fill="#457B9D"/>
<rect x="518.6" y="270.3" width="26.5" height="0.0" fill="#5B6770"/>
<rect x="551.7" y="270.3" width="26.5" height="21.6" fill="#00A6A6"/>
<text transform="translate(667.5,408) rotate(-22)" text-anchor="end" class="label">SciQ</text>
<rect x="617.9" y="270.3" width="26.5" height="0.0" fill="#457B9D"/>
<rect x="651.0" y="270.3" width="26.5" height="0.0" fill="#5B6770"/>
<rect x="684.0" y="270.3" width="26.5" height="28.8" fill="#00A6A6"/>
<text transform="translate(799.8,408) rotate(-22)" text-anchor="end" class="label">WinoGrande</text>
<rect x="750.2" y="205.4" width="26.5" height="64.9" fill="#457B9D"/>
<rect x="783.3" y="270.3" width="26.5" height="0.0" fill="#5B6770"/>
<rect x="816.4" y="162.2" width="26.5" height="108.2" fill="#00A6A6"/>
<rect x="656" y="54" width="12" height="12" fill="#457B9D"/>
<text x="674" y="65" class="label">AR</text>
<rect x="656" y="74" width="12" height="12" fill="#5B6770"/>
<text x="674" y="85" class="label">Old DDM control</text>
<rect x="656" y="94" width="12" height="12" fill="#00A6A6"/>
<text x="674" y="105" class="label">Old DDM original</text>
</svg>
